{
    "notes": [
        {
            "note_id": 81,
            "pitch": 65,
            "start_time": 56.0,
            "duration": 0.9906900391275392,
            "velocity": 111.0,
            "mute": 0,
            "probability": 1.0,
            "velocity_deviation": 0.0,
            "release_velocity": 0.0
        },
        {
            "note_id": 30,
            "pitch": 67,
            "start_time": 20.0,
            "duration": 1.0176432942057942,
            "velocity": 116.0,
            "mute": 0,
            "probability": 1.0,
            "velocity_deviation": 0.0,
            "release_velocity": 0.0
        },
        {
            "note_id": 42,
            "pitch": 67,
            "start_time": 28.0,
            "duration": 0.9274740884115884,
            "velocity": 112.0,
            "mute": 0,
            "probability": 1.0,
            "velocity_deviation": 0.0,
            "release_velocity": 0.0
        },
        {
            "note_id": 77,
            "pitch": 67,
            "start_time": 52.0,
            "duration": 1.3299479166666666,
            "velocity": 115.0,
            "mute": 0,
            "probability": 1.0,
            "velocity_deviation": 0.0,
            "release_velocity": 0.0
        },
        {
            "note_id": 80,
            "pitch": 67,
            "start_time": 55.0,
            "duration": 0.5302733724608725,
            "velocity": 99.0,
            "mute": 0,
            "probability": 1.0,
            "velocity_deviation": 0.0,
            "release_velocity": 0.0
        },
        {
            "note_id": 82,
            "pitch": 67,
            "start_time": 57.0,
            "duration": 0.96640625,
            "velocity": 104.0,
            "mute": 0,
            "probability": 1.0,
            "velocity_deviation": 0.0,
            "release_velocity": 0.0
        },
        {
            "note_id": 4,
            "pitch": 69,
            "start_time": 1.0,
            "duration": 0.6466796224608725,
            "velocity": 107.0,
            "mute": 0,
            "probability": 1.0,
            "velocity_deviation": 0.0,
            "release_velocity": 0.0
        },
        {
            "note_id": 8,
            "pitch": 69,
            "start_time": 3.0,
            "duration": 0.7235678384115884,
            "velocity": 108.0,
            "mute": 0,
            "probability": 1.0,
            "velocity_deviation": 0.0,
            "release_velocity": 0.0
        },
        {
            "note_id": 15,
            "pitch": 69,
            "start_time": 9.0,
            "duration": 0.53828125,
            "velocity": 105.0,
            "mute": 0,
            "probability": 1.0,
            "velocity_deviation": 0.0,
            "release_velocity": 0.0
        },
        {
            "note_id": 19,
            "pitch": 69,
            "start_time": 11.0,
            "duration": 0.7355470050782551,
            "velocity": 106.0,
            "mute": 0,
            "probability": 1.0,
            "velocity_deviation": 0.0,
            "release_velocity": 0.0
        },
        {
            "note_id": 25,
            "pitch": 69,
            "start_time": 17.0,
            "duration": 0.7147787108724609,
            "velocity": 110.0,
            "mute": 0,
            "probability": 1.0,
            "velocity_deviation": 0.0,
            "release_velocity": 0.0
        },
        {
            "note_id": 29,
            "pitch": 69,
            "start_time": 19.0,
            "duration": 0.7625,
            "velocity": 111.0,
            "mute": 0,
            "probability": 1.0,
            "velocity_deviation": 0.0,
            "release_velocity": 0.0
        },
        {
            "note_id": 31,
            "pitch": 69,
            "start_time": 21.0,
            "duration": 1.0742837891275392,
            "velocity": 112.0,
            "mute": 0,
            "probability": 1.0,
            "velocity_deviation": 0.0,
            "release_velocity": 0.0
        },
        {
            "note_id": 37,
            "pitch": 69,
            "start_time": 25.0,
            "duration": 0.6333333333333333,
            "velocity": 110.0,
            "mute": 0,
            "probability": 1.0,
            "velocity_deviation": 0.0,
            "release_velocity": 0.0
        },
        {
            "note_id": 41,
            "pitch": 69,
            "start_time": 27.0,
            "duration": 0.6139324217449218,
            "velocity": 106.0,
            "mute": 0,
            "probability": 1.0,
            "velocity_deviation": 0.0,
            "release_velocity": 0.0
        },
        {
            "note_id": 43,
            "pitch": 69,
            "start_time": 29.0,
            "duration": 1.0412108724608724,
            "velocity": 107.0,
            "mute": 0,
            "probability": 1.0,
            "velocity_deviation": 0.0,
            "release_velocity": 0.0
        },
        {
            "note_id": 49,
            "pitch": 69,
            "start_time": 33.0,
            "duration": 0.6333983724608725,
            "velocity": 105.0,
            "mute": 0,
            "probability": 1.0,
            "velocity_deviation": 0.0,
            "release_velocity": 0.0
        },
        {
            "note_id": 53,
            "pitch": 69,
            "start_time": 35.0,
            "duration": 0.5498046224608725,
            "velocity": 108.0,
            "mute": 0,
            "probability": 1.0,
            "velocity_deviation": 0.0,
            "release_velocity": 0.0
        },
        {
            "note_id": 60,
            "pitch": 69,
            "start_time": 41.0,
            "duration": 0.47239583333333335,
            "velocity": 104.0,
            "mute": 0,
            "probability": 1.0,
            "velocity_deviation": 0.0,
            "release_velocity": 0.0
        },
        {
            "note_id": 64,
            "pitch": 69,
            "start_time": 43.0,
            "duration": 0.40247382825507827,
            "velocity": 101.0,
            "mute": 0,
            "probability": 1.0,
            "velocity_deviation": 0.0,
            "release_velocity": 0.0
        },
        {
            "note_id": 72,
            "pitch": 69,
            "start_time": 49.0,
            "duration": 0.63203125,
            "velocity": 104.0,
            "mute": 0,
            "probability": 1.0,
            "velocity_deviation": 0.0,
            "release_velocity": 0.0
        },
        {
            "note_id": 76,
            "pitch": 69,
            "start_time": 51.0,
            "duration": 0.6205729166666667,
            "velocity": 106.0,
            "mute": 0,
            "probability": 1.0,
            "velocity_deviation": 0.0,
            "release_velocity": 0.0
        },
        {
            "note_id": 78,
            "pitch": 69,
            "start_time": 53.5,
            "duration": 0.16009121087246087,
            "velocity": 101.0,
            "mute": 0,
            "probability": 1.0,
            "velocity_deviation": 0.0,
            "release_velocity": 0.0
        },
        {
            "note_id": 79,
            "pitch": 69,
            "start_time": 54.0,
            "duration": 1.0115233724608725,
            "velocity": 112.0,
            "mute": 0,
            "probability": 1.0,
            "velocity_deviation": 0.0,
            "release_velocity": 0.0
        },
        {
            "note_id": 83,
            "pitch": 69,
            "start_time": 58.0,
            "duration": 0.9597004557942058,
            "velocity": 104.0,
            "mute": 0,
            "probability": 1.0,
            "velocity_deviation": 0.0,
            "release_velocity": 0.0
        },
        {
            "note_id": 87,
            "pitch": 69,
            "start_time": 62.0,
            "duration": 1.8165363282550782,
            "velocity": 113.0,
            "mute": 0,
            "probability": 1.0,
            "velocity_deviation": 0.0,
            "release_velocity": 0.0
        },
        {
            "note_id": 21,
            "pitch": 71,
            "start_time": 14.0,
            "duration": 1.1959634115884117,
            "velocity": 113.0,
            "mute": 0,
            "probability": 1.0,
            "velocity_deviation": 0.0,
            "release_velocity": 0.0
        },
        {
            "note_id": 32,
            "pitch": 71,
            "start_time": 22.0,
            "duration": 0.9544270833333334,
            "velocity": 112.0,
            "mute": 0,
            "probability": 1.0,
            "velocity_deviation": 0.0,
            "release_velocity": 0.0
        },
        {
            "note_id": 44,
            "pitch": 71,
            "start_time": 30.0,
            "duration": 0.9995442057942058,
            "velocity": 109.0,
            "mute": 0,
            "probability": 1.0,
            "velocity_deviation": 0.0,
            "release_velocity": 0.0
        },
        {
            "note_id": 85,
            "pitch": 71,
            "start_time": 60.0,
            "duration": 1.087565039127539,
            "velocity": 114.0,
            "mute": 0,
            "probability": 1.0,
            "velocity_deviation": 0.0,
            "release_velocity": 0.0
        },
        {
            "note_id": 3,
            "pitch": 72,
            "start_time": 0.5,
            "duration": 0.49134121087246085,
            "velocity": 105.0,
            "mute": 0,
            "probability": 1.0,
            "velocity_deviation": 0.0,
            "release_velocity": 0.0
        },
        {
            "note_id": 7,
            "pitch": 72,
            "start_time": 2.5,
            "duration": 0.49134121087246085,
            "velocity": 118.0,
            "mute": 0,
            "probability": 1.0,
            "velocity_deviation": 0.0,
            "release_velocity": 0.0
        },
        {
            "note_id": 9,
            "pitch": 72,
            "start_time": 4.0,
            "duration": 0.8238932942057942,
            "velocity": 119.0,
            "mute": 0,
            "probability": 1.0,
            "velocity_deviation": 0.0,
            "release_velocity": 0.0
        },
        {
            "note_id": 14,
            "pitch": 72,
            "start_time": 8.5,
            "duration": 0.47988287753912756,
            "velocity": 102.0,
            "mute": 0,
            "probability": 1.0,
            "velocity_deviation": 0.0,
            "release_velocity": 0.0
        },
        {
            "note_id": 18,
            "pitch": 72,
            "start_time": 10.5,
            "duration": 0.5780599608724609,
            "velocity": 116.0,
            "mute": 0,
            "probability": 1.0,
            "velocity_deviation": 0.0,
            "release_velocity": 0.0
        },
        {
            "note_id": 20,
            "pitch": 72,
            "start_time": 12.0,
            "duration": 1.6173828775391275,
            "velocity": 117.0,
            "mute": 0,
            "probability": 1.0,
            "velocity_deviation": 0.0,
            "release_velocity": 0.0
        },
        {
            "note_id": 24,
            "pitch": 72,
            "start_time": 16.5,
            "duration": 0.5201824217449218,
            "velocity": 116.0,
            "mute": 0,
            "probability": 1.0,
            "velocity_deviation": 0.0,
            "release_velocity": 0.0
        },
        {
            "note_id": 28,
            "pitch": 72,
            "start_time": 18.5,
            "duration": 0.5378254557942058,
            "velocity": 117.0,
            "mute": 0,
            "probability": 1.0,
            "velocity_deviation": 0.0,
            "release_velocity": 0.0
        },
        {
            "note_id": 33,
            "pitch": 72,
            "start_time": 23.0,
            "duration": 0.23613287753912754,
            "velocity": 110.0,
            "mute": 0,
            "probability": 1.0,
            "velocity_deviation": 0.0,
            "release_velocity": 0.0
        },
        {
            "note_id": 36,
            "pitch": 72,
            "start_time": 24.5,
            "duration": 0.525,
            "velocity": 112.0,
            "mute": 0,
            "probability": 1.0,
            "velocity_deviation": 0.0,
            "release_velocity": 0.0
        },
        {
            "note_id": 40,
            "pitch": 72,
            "start_time": 26.5,
            "duration": 0.5559895833333334,
            "velocity": 109.0,
            "mute": 0,
            "probability": 1.0,
            "velocity_deviation": 0.0,
            "release_velocity": 0.0
        },
        {
            "note_id": 45,
            "pitch": 72,
            "start_time": 31.0,
            "duration": 0.2113932942057942,
            "velocity": 102.0,
            "mute": 0,
            "probability": 1.0,
            "velocity_deviation": 0.0,
            "release_velocity": 0.0
        },
        {
            "note_id": 48,
            "pitch": 72,
            "start_time": 32.5,
            "duration": 0.5175129557942058,
            "velocity": 96.0,
            "mute": 0,
            "probability": 1.0,
            "velocity_deviation": 0.0,
            "release_velocity": 0.0
        },
        {
            "note_id": 52,
            "pitch": 72,
            "start_time": 34.5,
            "duration": 0.47988287753912756,
            "velocity": 114.0,
            "mute": 0,
            "probability": 1.0,
            "velocity_deviation": 0.0,
            "release_velocity": 0.0
        },
        {
            "note_id": 59,
            "pitch": 72,
            "start_time": 40.5,
            "duration": 0.46705742174492176,
            "velocity": 105.0,
            "mute": 0,
            "probability": 1.0,
            "velocity_deviation": 0.0,
            "release_velocity": 0.0
        },
        {
            "note_id": 63,
            "pitch": 72,
            "start_time": 42.5,
            "duration": 0.5108071615884116,
            "velocity": 111.0,
            "mute": 0,
            "probability": 1.0,
            "velocity_deviation": 0.0,
            "release_velocity": 0.0
        },
        {
            "note_id": 68,
            "pitch": 72,
            "start_time": 47.0,
            "duration": 0.18574212246087246,
            "velocity": 118.0,
            "mute": 0,
            "probability": 1.0,
            "velocity_deviation": 0.0,
            "release_velocity": 0.0
        },
        {
            "note_id": 71,
            "pitch": 72,
            "start_time": 48.5,
            "duration": 0.48652337246087246,
            "velocity": 107.0,
            "mute": 0,
            "probability": 1.0,
            "velocity_deviation": 0.0,
            "release_velocity": 0.0
        },
        {
            "note_id": 75,
            "pitch": 72,
            "start_time": 50.5,
            "duration": 0.5188150391275391,
            "velocity": 114.0,
            "mute": 0,
            "probability": 1.0,
            "velocity_deviation": 0.0,
            "release_velocity": 0.0
        },
        {
            "note_id": 84,
            "pitch": 72,
            "start_time": 59.0,
            "duration": 0.9084636717449217,
            "velocity": 114.0,
            "mute": 0,
            "probability": 1.0,
            "velocity_deviation": 0.0,
            "release_velocity": 0.0
        },
        {
            "note_id": 86,
            "pitch": 72,
            "start_time": 61.0,
            "duration": 0.9664712891275391,
            "velocity": 110.0,
            "mute": 0,
            "probability": 1.0,
            "velocity_deviation": 0.0,
            "release_velocity": 0.0
        },
        {
            "note_id": 2,
            "pitch": 74,
            "start_time": 0.25,
            "duration": 0.30214837246087245,
            "velocity": 116.0,
            "mute": 0,
            "probability": 1.0,
            "velocity_deviation": 0.0,
            "release_velocity": 0.0
        },
        {
            "note_id": 6,
            "pitch": 74,
            "start_time": 2.25,
            "duration": 0.33118496087246085,
            "velocity": 111.0,
            "mute": 0,
            "probability": 1.0,
            "velocity_deviation": 0.0,
            "release_velocity": 0.0
        },
        {
            "note_id": 10,
            "pitch": 74,
            "start_time": 5.0,
            "duration": 0.6253904949217449,
            "velocity": 118.0,
            "mute": 0,
            "probability": 1.0,
            "velocity_deviation": 0.0,
            "release_velocity": 0.0
        },
        {
            "note_id": 13,
            "pitch": 74,
            "start_time": 8.25,
            "duration": 0.3277345050782551,
            "velocity": 109.0,
            "mute": 0,
            "probability": 1.0,
            "velocity_deviation": 0.0,
            "release_velocity": 0.0
        },
        {
            "note_id": 17,
            "pitch": 74,
            "start_time": 10.25,
            "duration": 0.32024746087246087,
            "velocity": 107.0,
            "mute": 0,
            "probability": 1.0,
            "velocity_deviation": 0.0,
            "release_velocity": 0.0
        },
        {
            "note_id": 23,
            "pitch": 74,
            "start_time": 16.25,
            "duration": 0.3136067057942058,
            "velocity": 112.0,
            "mute": 0,
            "probability": 1.0,
            "velocity_deviation": 0.0,
            "release_velocity": 0.0
        },
        {
            "note_id": 27,
            "pitch": 74,
            "start_time": 18.25,
            "duration": 0.3069009115884116,
            "velocity": 96.0,
            "mute": 0,
            "probability": 1.0,
            "velocity_deviation": 0.0,
            "release_velocity": 0.0
        },
        {
            "note_id": 35,
            "pitch": 74,
            "start_time": 24.25,
            "duration": 0.30078125,
            "velocity": 96.0,
            "mute": 0,
            "probability": 1.0,
            "velocity_deviation": 0.0,
            "release_velocity": 0.0
        },
        {
            "note_id": 39,
            "pitch": 74,
            "start_time": 26.25,
            "duration": 0.2941407550782551,
            "velocity": 109.0,
            "mute": 0,
            "probability": 1.0,
            "velocity_deviation": 0.0,
            "release_velocity": 0.0
        },
        {
            "note_id": 47,
            "pitch": 74,
            "start_time": 32.25,
            "duration": 0.27460924492174493,
            "velocity": 56.0,
            "mute": 0,
            "probability": 1.0,
            "velocity_deviation": 0.0,
            "release_velocity": 0.0
        },
        {
            "note_id": 51,
            "pitch": 74,
            "start_time": 34.25,
            "duration": 0.3184245442057942,
            "velocity": 99.0,
            "mute": 0,
            "probability": 1.0,
            "velocity_deviation": 0.0,
            "release_velocity": 0.0
        },
        {
            "note_id": 58,
            "pitch": 74,
            "start_time": 40.25,
            "duration": 0.2786458333333333,
            "velocity": 76.0,
            "mute": 0,
            "probability": 1.0,
            "velocity_deviation": 0.0,
            "release_velocity": 0.0
        },
        {
            "note_id": 62,
            "pitch": 74,
            "start_time": 42.25,
            "duration": 0.3277342449217449,
            "velocity": 109.0,
            "mute": 0,
            "probability": 1.0,
            "velocity_deviation": 0.0,
            "release_velocity": 0.0
        },
        {
            "note_id": 67,
            "pitch": 74,
            "start_time": 46.0,
            "duration": 0.5431641275391276,
            "velocity": 117.0,
            "mute": 0,
            "probability": 1.0,
            "velocity_deviation": 0.0,
            "release_velocity": 0.0
        },
        {
            "note_id": 70,
            "pitch": 74,
            "start_time": 48.25,
            "duration": 0.28932291666666665,
            "velocity": 103.0,
            "mute": 0,
            "probability": 1.0,
            "velocity_deviation": 0.0,
            "release_velocity": 0.0
        },
        {
            "note_id": 74,
            "pitch": 74,
            "start_time": 50.25,
            "duration": 0.31888007825507825,
            "velocity": 107.0,
            "mute": 0,
            "probability": 1.0,
            "velocity_deviation": 0.0,
            "release_velocity": 0.0
        },
        {
            "note_id": 1,
            "pitch": 76,
            "start_time": 0.0,
            "duration": 0.2988932942057942,
            "velocity": 115.0,
            "mute": 0,
            "probability": 1.0,
            "velocity_deviation": 0.0,
            "release_velocity": 0.0
        },
        {
            "note_id": 5,
            "pitch": 76,
            "start_time": 2.0,
            "duration": 0.23489583333333333,
            "velocity": 116.0,
            "mute": 0,
            "probability": 1.0,
            "velocity_deviation": 0.0,
            "release_velocity": 0.0
        },
        {
            "note_id": 11,
            "pitch": 76,
            "start_time": 6.0,
            "duration": 1.163672005078255,
            "velocity": 119.0,
            "mute": 0,
            "probability": 1.0,
            "velocity_deviation": 0.0,
            "release_velocity": 0.0
        },
        {
            "note_id": 12,
            "pitch": 76,
            "start_time": 8.0,
            "duration": 0.22207037753912753,
            "velocity": 116.0,
            "mute": 0,
            "probability": 1.0,
            "velocity_deviation": 0.0,
            "release_velocity": 0.0
        },
        {
            "note_id": 16,
            "pitch": 76,
            "start_time": 10.0,
            "duration": 0.24772128912753913,
            "velocity": 117.0,
            "mute": 0,
            "probability": 1.0,
            "velocity_deviation": 0.0,
            "release_velocity": 0.0
        },
        {
            "note_id": 22,
            "pitch": 76,
            "start_time": 16.0,
            "duration": 0.22421875,
            "velocity": 119.0,
            "mute": 0,
            "probability": 1.0,
            "velocity_deviation": 0.0,
            "release_velocity": 0.0
        },
        {
            "note_id": 26,
            "pitch": 76,
            "start_time": 18.0,
            "duration": 0.22207037753912753,
            "velocity": 117.0,
            "mute": 0,
            "probability": 1.0,
            "velocity_deviation": 0.0,
            "release_velocity": 0.0
        },
        {
            "note_id": 34,
            "pitch": 76,
            "start_time": 24.0,
            "duration": 0.25566412753912754,
            "velocity": 109.0,
            "mute": 0,
            "probability": 1.0,
            "velocity_deviation": 0.0,
            "release_velocity": 0.0
        },
        {
            "note_id": 38,
            "pitch": 76,
            "start_time": 26.0,
            "duration": 0.22473958333333333,
            "velocity": 116.0,
            "mute": 0,
            "probability": 1.0,
            "velocity_deviation": 0.0,
            "release_velocity": 0.0
        },
        {
            "note_id": 46,
            "pitch": 76,
            "start_time": 32.0,
            "duration": 0.2066404949217449,
            "velocity": 111.0,
            "mute": 0,
            "probability": 1.0,
            "velocity_deviation": 0.0,
            "release_velocity": 0.0
        },
        {
            "note_id": 50,
            "pitch": 76,
            "start_time": 34.0,
            "duration": 0.19192708333333333,
            "velocity": 113.0,
            "mute": 0,
            "probability": 1.0,
            "velocity_deviation": 0.0,
            "release_velocity": 0.0
        },
        {
            "note_id": 57,
            "pitch": 76,
            "start_time": 40.0,
            "duration": 0.2706379557942058,
            "velocity": 111.0,
            "mute": 0,
            "probability": 1.0,
            "velocity_deviation": 0.0,
            "release_velocity": 0.0
        },
        {
            "note_id": 61,
            "pitch": 76,
            "start_time": 42.0,
            "duration": 0.26178378912753913,
            "velocity": 116.0,
            "mute": 0,
            "probability": 1.0,
            "velocity_deviation": 0.0,
            "release_velocity": 0.0
        },
        {
            "note_id": 66,
            "pitch": 76,
            "start_time": 45.0,
            "duration": 0.6024087891275391,
            "velocity": 116.0,
            "mute": 0,
            "probability": 1.0,
            "velocity_deviation": 0.0,
            "release_velocity": 0.0
        },
        {
            "note_id": 69,
            "pitch": 76,
            "start_time": 48.0,
            "duration": 0.29414049492174493,
            "velocity": 114.0,
            "mute": 0,
            "probability": 1.0,
            "velocity_deviation": 0.0,
            "release_velocity": 0.0
        },
        {
            "note_id": 73,
            "pitch": 76,
            "start_time": 50.0,
            "duration": 0.2113282550782551,
            "velocity": 119.0,
            "mute": 0,
            "probability": 1.0,
            "velocity_deviation": 0.0,
            "release_velocity": 0.0
        },
        {
            "note_id": 54,
            "pitch": 77,
            "start_time": 36.0,
            "duration": 0.9098307942057942,
            "velocity": 113.0,
            "mute": 0,
            "probability": 1.0,
            "velocity_deviation": 0.0,
            "release_velocity": 0.0
        },
        {
            "note_id": 65,
            "pitch": 77,
            "start_time": 44.0,
            "duration": 0.6595053384115884,
            "velocity": 114.0,
            "mute": 0,
            "probability": 1.0,
            "velocity_deviation": 0.0,
            "release_velocity": 0.0
        },
        {
            "note_id": 55,
            "pitch": 79,
            "start_time": 37.5,
            "duration": 0.21673170579420578,
            "velocity": 109.0,
            "mute": 0,
            "probability": 1.0,
            "velocity_deviation": 0.0,
            "release_velocity": 0.0
        },
        {
            "note_id": 56,
            "pitch": 79,
            "start_time": 38.0,
            "duration": 0.36223958333333334,
            "velocity": 116.0,
            "mute": 0,
            "probability": 1.0,
            "velocity_deviation": 0.0,
            "release_velocity": 0.0
        }
    ]
}